<svg id="Filled" height="512" viewBox="0 0 512 512" width="512" xmlns="http://www.w3.org/2000/svg"><path d="m74.981 74.981 33.941 33.941 5.657-39.598z" fill="#88c791"/><path d="m437.019 437.019-33.941-33.941-5.657 39.598z" fill="#88c791"/><g fill="#dadcde"><path d="m256 335.999 40 40-4-72h-4z"/><path d="m288.449 240.179-.45-.18-32-50.29 24-37.71h3.56z"/><path d="m255.999 189.709-32 50.29-.45.18 4.89-88.18h3.56z"/><path d="m255.999 335.999-40 40 4-72h4z"/><path d="m279.999 87.999h-48l24-32z"/></g><path d="m283.559 151.999h-55.12l3.56-64h48z" fill="#9aa3a8"/><path d="m231.999 87.999-3.56 64h-4.44l-44.42-36.04z" fill="#dadcde"/><path d="m223.999 151.999h-112l67.58-36.04z" fill="#9aa3a8"/><path d="m332.419 115.959-45.87 36.04h-2.99l-3.56-64z" fill="#dadcde"/><path d="m399.999 151.999h-113.45l45.87-36.04z" fill="#9aa3a8"/><path d="m287.999 239.999h-64l32-50.29z" fill="#dadcde"/><path d="m291.999 303.999h-72l3.55-63.82.45-.18h64l.45.18z" fill="#9aa3a8"/><path d="m223.549 240.179-3.55 63.82h-4l-50.67-40.53z" fill="#dadcde"/><path d="m215.999 303.999h-152l101.33-40.53z" fill="#9aa3a8"/><path d="m346.669 263.469-50.67 40.53h-4l-3.55-63.82z" fill="#dadcde"/><path d="m447.999 303.999h-152l50.67-40.53z" fill="#9aa3a8"/><path d="m279.999 151.999-24 37.71-24-37.71z" fill="#dadcde"/><path d="m287.999 303.999-32 32-32-32z" fill="#dadcde"/><path d="m295.999 375.999-40 50.91-40-50.91 40-40z" fill="#dadcde"/><path d="m215.999 375.999-5.97 107.42" fill="none"/><path d="m255.999 426.909-44.61 56.78" fill="none"/><path d="m300.609 483.689-44.61-56.78" fill="none"/><path d="m300.609 483.689a233.285 233.285 0 0 1 -89.22 0l44.611-56.78z" fill="#dadcde"/><path d="m301.969 483.419-1.36.27-44.609-56.78 40-50.909z" fill="#dadcde"/><path d="m256 426.909-44.61 56.78c-.45-.08-.91-.17-1.36-.27l5.97-107.419z" fill="#dadcde"/><path d="m493.892 224.155a240.066 240.066 0 0 0 -206.047-206.047 241.712 241.712 0 0 0 -148.2 27.913 8 8 0 1 0 7.762 13.992 225.648 225.648 0 0 1 138.326-26.045 224.068 224.068 0 0 1 192.3 192.3 223.357 223.357 0 0 1 -58.083 182.368l-11.214-11.214a8 8 0 0 0 -13.576 4.526l-5.657 39.6a8 8 0 0 0 7.919 9.132 8.151 8.151 0 0 0 1.132-.08l39.6-5.657a8 8 0 0 0 4.525-13.577l-11.409-11.408a239.335 239.335 0 0 0 62.625-195.8zm-87.042 209.093 1.885-13.2 11.314 11.313z"/><path d="m86.294 425.706a238.107 238.107 0 0 0 133.672 67.588 243.818 243.818 0 0 0 36.418 2.748 238.388 238.388 0 0 0 108.323-26 8 8 0 0 0 -7.248-14.264 223.842 223.842 0 0 1 -48.021 17.85l-8.98-161.628h51.542v40a8 8 0 0 0 16 0v-40h48v40a8 8 0 0 0 16 0v-40h16a8 8 0 0 0 2.971-15.428l-154.81-61.924-4.148-74.648h75.987v40a8 8 0 0 0 16 0v-40h16a8 8 0 0 0 3.765-15.059l-118.432-63.163-22.933-30.578a8 8 0 0 0 -12.8 0l-22.933 30.578-118.432 63.163a8 8 0 0 0 3.765 15.059h16v40a8 8 0 0 0 16 0v-40h75.99l-4.145 74.646-154.816 61.926a8 8 0 0 0 2.971 15.428h16v40a8 8 0 0 0 16 0v-40h48v40a8 8 0 0 0 16 0v-40h51.545l-3.53 63.516v.015l-5.449 98.037a223.871 223.871 0 0 1 -110.51-370.2l11.21 11.21a8 8 0 0 0 13.576-4.526l5.657-39.6a8 8 0 0 0 -9.051-9.052l-39.6 5.657a8 8 0 0 0 -4.525 13.577l11.414 11.417a239.951 239.951 0 0 0 5.557 333.655zm136.516-28.09 23.016 29.3-26.519 33.754zm69.883 63.049-26.519-33.753 23.015-29.294zm-36.693-46.702-29.325-37.324 29.325-29.325 29.325 29.325zm11.314-77.963 17.478-17.478 2.058 37.014zm-11.314-11.314-12.686-12.686h25.372zm-27.545-28.686 2.667-48h49.75l2.668 48zm10.118-64 17.427-27.384 17.427 27.384zm26.91-42.286 11.177-17.565 2.137 38.488zm-9.483-14.901-9.427-14.813h18.854zm32.776-73.066 29.059 15.5-27.018 21.228zm-16.344-5.747 2.665 48h-38.197l2.667-48zm-51.3 43.373-27.153-22.03 29.242-15.6zm25.382 50.341-13.314 20.931 2.139-38.5zm-33.808 101.407-31.659-25.321 33.818-13.527zm31.98 44.879-19.539 19.539 2.057-37.021zm-18.647 141.994 29.961-38.134 30.009 38.195a224.965 224.965 0 0 1 -59.97-.061zm92.769-181.994 29.22-23.373 58.431 23.373zm12.145-30.2-31.653 25.318-2.158-38.846zm-21.272-121.8 23.581-18.527 34.738 18.527zm-53.681-74.667 8 10.667h-16zm-77.341 56.182 22.783 18.485h-57.442zm-14.687 147.112 29.22 23.373h-87.651zm-58.822-193.875-1.885 13.2-11.314-11.314z"/></svg>